<svg width="46" height="40" viewBox="0 0 46 40" fill="none" xmlns="http://www.w3.org/2000/svg">
<path d="M17.888 29.0993C17.7168 29.0993 17.5442 29.0404 17.4035 28.9205L12.56 24.7963C12.3929 24.6539 12.2969 24.4459 12.2969 24.2262C12.2969 24.0069 12.3934 23.7989 12.56 23.6565L17.4035 19.5322C17.718 19.2641 18.1904 19.3021 18.4586 19.6166C18.7263 19.9315 18.6887 20.4039 18.3738 20.6717L14.1998 24.2262L18.3738 27.7807C18.6887 28.0488 18.7263 28.5212 18.4586 28.8357C18.3103 29.0099 18.0998 29.0993 17.888 29.0993Z" fill="#00BC65"/>
<path d="M27.4481 29.0993C27.2363 29.0993 27.0258 29.0099 26.8779 28.8357C26.6098 28.5212 26.6478 28.0488 26.9623 27.7807L31.1362 24.2262L26.9623 20.6717C26.6478 20.4039 26.6098 19.9315 26.8779 19.6166C27.1457 19.3021 27.6185 19.2641 27.9326 19.5322L32.776 23.6565C32.9431 23.7989 33.0392 24.0069 33.0392 24.2262C33.0392 24.4459 32.9431 24.6539 32.776 24.7963L27.9326 28.9205C27.7918 29.0404 27.6193 29.0993 27.4481 29.0993Z" fill="#00BC65"/>
<path d="M20.9528 32.1926C20.9014 32.1926 20.8496 32.1872 20.7974 32.1763C20.3931 32.0911 20.1341 31.6939 20.2193 31.2896L23.2379 16.9576C23.3231 16.5533 23.7199 16.2943 24.1247 16.3795C24.529 16.4647 24.788 16.8615 24.7028 17.2662L21.6841 31.5983C21.6098 31.9508 21.299 32.1926 20.9528 32.1926Z" fill="#00BC65"/>
<path d="M40.3116 40H5.02558C2.25466 40 0 37.7458 0 34.9744V5.02558C0 2.25466 2.25466 0 5.02558 0H40.3116C43.0825 0 45.3372 2.25466 45.3372 5.02558V34.9744C45.3372 37.7458 43.0825 40 40.3116 40ZM5.02558 1.49698C3.08001 1.49698 1.49698 3.08001 1.49698 5.02558V34.9744C1.49698 36.92 3.08001 38.503 5.02558 38.503H40.3116C42.2572 38.503 43.8402 36.92 43.8402 34.9744V5.02558C43.8402 3.08001 42.2572 1.49698 40.3116 1.49698H5.02558Z" fill="#00BC65"/>
<path d="M44.5887 11.9853H0.748491C0.334983 11.9853 0 11.6503 0 11.2368C0 10.8237 0.334983 10.4883 0.748491 10.4883H44.5887C45.0022 10.4883 45.3372 10.8237 45.3372 11.2368C45.3372 11.6503 45.0022 11.9853 44.5887 11.9853Z" fill="#00BC65"/>
<path d="M12.7867 8.4034C11.481 8.4034 10.418 7.34039 10.418 6.03471C10.418 4.72861 11.481 3.66602 12.7867 3.66602C14.0928 3.66602 15.1554 4.72861 15.1554 6.03471C15.1554 7.34039 14.0928 8.4034 12.7867 8.4034ZM12.7867 5.163C12.3064 5.163 11.915 5.55395 11.915 6.03471C11.915 6.51546 12.3064 6.90641 12.7867 6.90641C13.2675 6.90641 13.6584 6.51546 13.6584 6.03471C13.6584 5.55395 13.2675 5.163 12.7867 5.163Z" fill="#00BC65"/>
<path d="M5.51322 8.37996C4.20712 8.37996 3.14453 7.31737 3.14453 6.01127C3.14453 4.70517 4.20712 3.64258 5.51322 3.64258C6.81932 3.64258 7.88191 4.70517 7.88191 6.01127C7.88191 7.31737 6.81932 8.37996 5.51322 8.37996ZM5.51322 5.13956C5.03288 5.13956 4.64151 5.53093 4.64151 6.01127C4.64151 6.49202 5.03288 6.88298 5.51322 6.88298C5.99397 6.88298 6.38493 6.49202 6.38493 6.01127C6.38493 5.53093 5.99397 5.13956 5.51322 5.13956Z" fill="#00BC65"/>
<path d="M20.0675 8.42642C18.7618 8.42642 17.6992 7.36383 17.6992 6.05773C17.6992 4.75204 18.7618 3.68945 20.0675 3.68945C21.3736 3.68945 22.4362 4.75204 22.4362 6.05773C22.4362 7.36383 21.3736 8.42642 20.0675 8.42642ZM20.0675 5.18602C19.5872 5.18602 19.1962 5.57697 19.1962 6.05773C19.1962 6.53848 19.5872 6.92943 20.0675 6.92943C20.5483 6.92943 20.9392 6.53848 20.9392 6.05773C20.9392 5.57697 20.5483 5.18602 20.0675 5.18602Z" fill="#00BC65"/>
</svg>
