<svg width="42" height="41" viewBox="0 0 42 41" fill="none" xmlns="http://www.w3.org/2000/svg">
<path d="M39.5688 31.3843H2.06936C0.997677 31.3843 0.132812 30.5195 0.132812 29.4478V2.76858C0.132812 1.7063 1.00708 0.832031 2.06936 0.832031H39.5688C40.6404 0.832031 41.5053 1.6969 41.5053 2.76858V29.4478C41.5053 30.5195 40.6404 31.3843 39.5688 31.3843ZM2.06936 1.7721C1.52412 1.7721 1.07288 2.22334 1.07288 2.76858V29.4478C1.07288 30.0024 1.52412 30.4443 2.06936 30.4443H39.5688C40.1234 30.4443 40.5652 29.993 40.5652 29.4478V2.76858C40.5652 2.22334 40.114 1.7721 39.5688 1.7721H2.06936Z" fill="#D16900"/>
<path d="M38.516 28.8651H3.12238C2.85916 28.8651 2.65234 28.6583 2.65234 28.395V3.8216C2.65234 3.55838 2.85916 3.35156 3.12238 3.35156H38.5066C38.7699 3.35156 38.9767 3.55838 38.9767 3.8216V28.395C38.9861 28.6583 38.7699 28.8651 38.516 28.8651ZM3.59241 27.925H38.0366V4.29163H3.59241V27.925Z" fill="#D16900"/>
<path d="M15.5688 38.1246C15.4466 38.1246 15.315 38.0776 15.221 37.9742C15.0424 37.7862 15.0518 37.4854 15.2492 37.3068C18.2668 34.5053 17.0165 31.2245 16.9601 31.0835C16.8661 30.8391 16.9789 30.5665 17.2234 30.4724C17.4678 30.3784 17.7404 30.4912 17.8344 30.7357C17.8532 30.7733 18.2386 31.7603 18.1916 33.1422C18.1446 34.4207 17.7122 36.2915 15.8885 37.993C15.7945 38.087 15.6816 38.1246 15.5688 38.1246Z" fill="#D16900"/>
<path d="M26.0682 38.125C25.9554 38.125 25.8426 38.0874 25.7486 38.0028C23.9249 36.3106 23.4924 34.4305 23.4454 33.152C23.3984 31.7701 23.7839 30.783 23.8027 30.7454C23.8967 30.501 24.1693 30.3882 24.4137 30.4822C24.6581 30.5762 24.7709 30.8488 24.6769 31.0933C24.6205 31.2343 23.3796 34.5151 26.3879 37.3165C26.5759 37.4951 26.5853 37.7866 26.4161 37.984C26.322 38.078 26.1998 38.125 26.0682 38.125Z" fill="#D16900"/>
<path d="M30.2514 40.8311H11.3842C11.1209 40.8311 10.9141 40.6243 10.9141 40.361V39.0073C10.9141 38.0015 11.732 37.1836 12.7379 37.1836H28.8977C29.9035 37.1836 30.7214 38.0015 30.7214 39.0073V40.361C30.7214 40.6149 30.5146 40.8311 30.2514 40.8311ZM11.8542 39.891H29.7813V39.0073C29.7813 38.5185 29.3865 38.1237 28.8977 38.1237H12.7379C12.249 38.1237 11.8542 38.5185 11.8542 39.0073V39.891Z" fill="#D16900"/>
<path d="M12.2715 22.7263C12.1869 22.7263 12.1023 22.7075 12.0271 22.6605L6.61233 19.4173C6.47132 19.3327 6.38672 19.1823 6.38672 19.0131V12.8744C6.38672 12.7052 6.48072 12.5454 6.62173 12.4608C6.76274 12.3762 6.95076 12.3762 7.09177 12.4702L12.5065 15.7134C12.6475 15.798 12.7321 15.9484 12.7321 16.1176V22.2563C12.7321 22.4255 12.6381 22.5853 12.4971 22.6699C12.4313 22.7075 12.3467 22.7263 12.2715 22.7263ZM7.32679 18.7498L11.8015 21.429V16.3809L7.32679 13.7017V18.7498Z" fill="#D16900"/>
<path d="M12.267 22.7271C12.1824 22.7271 12.1072 22.7083 12.0319 22.6707C11.8815 22.5861 11.7969 22.4357 11.7969 22.2571V16.1184C11.7969 15.9492 11.8815 15.7988 12.0225 15.7142L17.4374 12.4709C17.5784 12.3863 17.7664 12.3863 17.9074 12.4615C18.0578 12.5461 18.1424 12.7059 18.1424 12.8752V19.0138C18.1424 19.183 18.0578 19.3334 17.9168 19.4181L12.502 22.6613C12.4362 22.7083 12.3516 22.7271 12.267 22.7271ZM12.737 16.3816V21.4298L17.2117 18.7506V13.7024L12.737 16.3816Z" fill="#D16900"/>
<path d="M6.85634 13.3445C6.68712 13.3445 6.52731 13.2599 6.44271 13.1001C6.3205 12.8745 6.4051 12.5831 6.63072 12.4609L12.0456 9.54664C12.1866 9.47143 12.3558 9.47143 12.4874 9.54664L17.9022 12.4609C18.1278 12.5831 18.2124 12.8651 18.0902 13.1001C17.968 13.3351 17.686 13.4103 17.451 13.2881L12.2618 10.4961L7.07255 13.2881C7.00675 13.3257 6.93154 13.3445 6.85634 13.3445Z" fill="#D16900"/>
<path d="M16.3305 8.13734H8.20832C7.9451 8.13734 7.73828 7.93052 7.73828 7.6673C7.73828 7.40408 7.9451 7.19727 8.20832 7.19727H16.3305C16.5937 7.19727 16.8006 7.40408 16.8006 7.6673C16.8006 7.93052 16.5937 8.13734 16.3305 8.13734Z" fill="#D16900"/>
<path d="M14.9669 9.49993C14.8447 9.49993 14.7225 9.45293 14.6379 9.35892C14.4593 9.18031 14.4593 8.87949 14.6379 8.69147L15.6719 7.65739L14.6379 6.62332C14.4593 6.4447 14.4593 6.14388 14.6379 5.95587C14.8165 5.76785 15.1173 5.77725 15.3053 5.95587L16.659 7.33777C16.8376 7.51638 16.8376 7.81721 16.659 8.00522L15.2959 9.36832C15.2019 9.45293 15.0891 9.49993 14.9669 9.49993Z" fill="#D16900"/>
<path d="M9.57218 9.50066C9.44997 9.50066 9.32776 9.45365 9.24316 9.35965L7.88005 7.99654C7.70144 7.81793 7.70144 7.51711 7.88005 7.32909L9.24316 5.96599C9.42177 5.78738 9.72259 5.78738 9.91061 5.96599C10.0892 6.1446 10.0892 6.44543 9.91061 6.63344L8.87653 7.66752L9.91061 8.7016C10.0892 8.88021 10.0892 9.18103 9.91061 9.36905C9.8166 9.45365 9.69439 9.50066 9.57218 9.50066Z" fill="#D16900"/>
<path d="M16.3305 25.0299H8.20832C7.9451 25.0299 7.73828 24.8231 7.73828 24.5599C7.73828 24.2967 7.9451 24.0898 8.20832 24.0898H16.3305C16.5937 24.0898 16.8006 24.2967 16.8006 24.5599C16.8006 24.8231 16.5937 25.0299 16.3305 25.0299Z" fill="#D16900"/>
<path d="M14.9669 26.3921C14.8447 26.3921 14.7225 26.3451 14.6379 26.2511C14.4593 26.0631 14.4593 25.7717 14.6379 25.5836L15.6719 24.5496L14.6379 23.5155C14.4593 23.3275 14.4593 23.0361 14.6379 22.848C14.8165 22.66 15.1173 22.66 15.3053 22.848L16.6684 24.2111C16.847 24.3992 16.847 24.6906 16.6684 24.8786L15.3053 26.2417C15.2019 26.3451 15.0891 26.3921 14.9669 26.3921Z" fill="#D16900"/>
<path d="M9.57218 26.3925C9.44997 26.3925 9.32776 26.3455 9.24316 26.2515L7.88005 24.8884C7.70144 24.7003 7.70144 24.4089 7.88005 24.2209L9.24316 22.8578C9.42177 22.6698 9.72259 22.6698 9.91061 22.8578C10.0892 23.0458 10.0892 23.3372 9.91061 23.5253L8.87653 24.5593L9.91061 25.5934C10.0892 25.7814 10.0892 26.0728 9.91061 26.2609C9.8166 26.3455 9.69439 26.3925 9.57218 26.3925Z" fill="#D16900"/>
<path d="M23.0507 26.392H21.4808C20.7945 26.392 20.2305 25.8374 20.2305 25.1511V10.345C20.2305 10.0818 20.4373 9.875 20.7005 9.875H23.8215C24.0848 9.875 24.2916 10.0818 24.2916 10.345V25.1417C24.301 25.828 23.7369 26.392 23.0507 26.392ZM21.1799 10.8151V25.1417C21.1799 25.311 21.321 25.4426 21.4902 25.4426H23.0507C23.2199 25.4426 23.3515 25.3016 23.3515 25.1417V10.8151H21.1799Z" fill="#D16900"/>
<path d="M23.829 10.8164C23.641 10.8164 23.4624 10.7035 23.3872 10.5155L22.2685 7.61072L21.1498 10.5155C21.0558 10.76 20.7832 10.8822 20.5387 10.7882C20.2943 10.6941 20.1721 10.4215 20.2661 10.1771L21.8266 6.13481C21.8924 5.95619 22.0711 5.83398 22.2685 5.83398C22.4659 5.83398 22.6351 5.95619 22.7103 6.13481L24.2708 10.1771C24.3648 10.4215 24.2426 10.6941 23.9982 10.7882C23.9418 10.807 23.8854 10.8164 23.829 10.8164Z" fill="#D16900"/>
<path d="M23.8294 23.6198H20.7084C20.4451 23.6198 20.2383 23.4129 20.2383 23.1497C20.2383 22.8865 20.4451 22.6797 20.7084 22.6797H23.8294C24.0926 22.6797 24.2994 22.8865 24.2994 23.1497C24.2994 23.4129 24.0832 23.6198 23.8294 23.6198Z" fill="#D16900"/>
<path d="M34.786 8.00452H26.6262C26.363 8.00452 26.1562 7.79771 26.1562 7.53449C26.1562 7.27127 26.363 7.06445 26.6262 7.06445H34.786C35.0493 7.06445 35.2561 7.27127 35.2561 7.53449C35.2561 7.79771 35.0493 8.00452 34.786 8.00452Z" fill="#D16900"/>
<path d="M34.786 10.8619H26.6262C26.363 10.8619 26.1562 10.6551 26.1562 10.3919C26.1562 10.1287 26.363 9.92188 26.6262 9.92188H34.786C35.0493 9.92188 35.2561 10.1287 35.2561 10.3919C35.2561 10.6551 35.0493 10.8619 34.786 10.8619Z" fill="#D16900"/>
<path d="M34.786 13.7194H26.6262C26.363 13.7194 26.1562 13.5126 26.1562 13.2493C26.1562 12.9861 26.363 12.7793 26.6262 12.7793H34.786C35.0493 12.7793 35.2561 12.9861 35.2561 13.2493C35.2561 13.5126 35.0493 13.7194 34.786 13.7194Z" fill="#D16900"/>
<path d="M34.786 16.5787H26.6262C26.363 16.5787 26.1562 16.3719 26.1562 16.1087C26.1562 15.8455 26.363 15.6387 26.6262 15.6387H34.786C35.0493 15.6387 35.2561 15.8455 35.2561 16.1087C35.2561 16.3719 35.0493 16.5787 34.786 16.5787Z" fill="#D16900"/>
<path d="M34.786 19.4362H26.6262C26.363 19.4362 26.1562 19.2293 26.1562 18.9661C26.1562 18.7029 26.363 18.4961 26.6262 18.4961H34.786C35.0493 18.4961 35.2561 18.7029 35.2561 18.9661C35.2561 19.2293 35.0493 19.4362 34.786 19.4362Z" fill="#D16900"/>
<path d="M34.786 22.2936H26.6262C26.363 22.2936 26.1562 22.0868 26.1562 21.8236C26.1562 21.5603 26.363 21.3535 26.6262 21.3535H34.786C35.0493 21.3535 35.2561 21.5603 35.2561 21.8236C35.2561 22.0868 35.0493 22.2936 34.786 22.2936Z" fill="#D16900"/>
<path d="M34.786 25.151H26.6262C26.363 25.151 26.1562 24.9442 26.1562 24.681C26.1562 24.4178 26.363 24.2109 26.6262 24.2109H34.786C35.0493 24.2109 35.2561 24.4178 35.2561 24.681C35.2561 24.9442 35.0493 25.151 34.786 25.151Z" fill="#D16900"/>
</svg>
