<svg width="40" height="40" viewBox="0 0 40 40" fill="none" xmlns="http://www.w3.org/2000/svg">
<path d="M39.6505 29.1037L35.5517 27.0543L32.9432 20.2688C32.9124 20.1886 32.8655 20.1156 32.8053 20.0543C32.7451 19.993 32.6729 19.9448 32.5933 19.9127L16.4075 13.4427C16.2943 13.3977 16.1705 13.3867 16.0511 13.4111C15.9318 13.4355 15.8222 13.4943 15.7358 13.5802L13.5771 15.7389C13.4923 15.8254 13.4345 15.9346 13.4107 16.0533C13.3868 16.172 13.398 16.295 13.4428 16.4075L19.9127 32.5932C19.9448 32.6729 19.993 32.7451 20.0543 32.8053C20.1156 32.8655 20.1886 32.9124 20.2688 32.9431L27.0543 35.5517L29.1037 39.6505C29.1468 39.7409 29.2111 39.8196 29.291 39.8799C29.3709 39.9403 29.4642 39.9805 29.5629 39.9973C29.5962 40.0004 29.6296 40.0004 29.6629 39.9973C29.8283 39.9966 29.9867 39.9303 30.1034 39.813L39.813 30.1034C39.8844 30.0344 39.9384 29.9494 39.9705 29.8554C40.0025 29.7614 40.0117 29.6612 39.9973 29.5629C39.9805 29.4642 39.9403 29.3709 39.8799 29.291C39.8196 29.2111 39.7409 29.1468 39.6505 29.1037ZM14.7517 16.3263L15.0985 15.9826L23.1555 24.0396C22.6245 24.792 22.3952 25.7162 22.5128 26.6296C22.6305 27.5429 23.0866 28.3789 23.791 28.9721C24.4953 29.5653 25.3967 29.8727 26.3167 29.8334C27.2368 29.794 28.1086 29.4109 28.7598 28.7597C29.4109 28.1086 29.7941 27.2368 29.8334 26.3167C29.8727 25.3967 29.5654 24.4953 28.9721 23.791C28.3789 23.0866 27.5429 22.6305 26.6296 22.5128C25.7162 22.3951 24.792 22.6245 24.0396 23.1555L15.9826 15.0985L16.3263 14.7517L31.8747 20.9717L34.3271 27.3511L27.3511 34.3271L20.9717 31.8747L14.7517 16.3263ZM26.1577 23.7303C26.7192 23.7311 27.2631 23.9266 27.6967 24.2835C28.1303 24.6403 28.4267 25.1365 28.5355 25.6874C28.6443 26.2383 28.5587 26.8099 28.2933 27.3048C28.028 27.7997 27.5992 28.1872 27.0802 28.4015C26.5611 28.6157 25.9838 28.6434 25.4466 28.4797C24.9095 28.316 24.4456 27.9712 24.1342 27.5039C23.8228 27.0367 23.683 26.4759 23.7386 25.9171C23.7943 25.3583 24.042 24.8361 24.4395 24.4394C24.8956 23.9847 25.5136 23.7297 26.1577 23.7303ZM29.8347 38.3165L28.2727 35.1925L35.1862 28.2789L38.3103 29.8409L29.8347 38.3165Z" fill="#4500D0"/>
<path d="M11.9588 33.4372C11.8393 33.3242 11.6811 33.2613 11.5167 33.2613C11.3523 33.2613 11.1942 33.3242 11.0747 33.4372L10.2812 34.2307C8.1636 31.3567 6.99542 27.8937 6.93942 24.3243C6.88342 20.7549 7.9424 17.2569 9.96875 14.3179C10.5758 14.652 11.2749 14.7803 11.961 14.6836C12.6472 14.587 13.2836 14.2706 13.7748 13.7818C14.266 13.2931 14.5856 12.6583 14.6857 11.9727C14.7858 11.287 14.6609 10.5873 14.3299 9.97858C17.2689 7.95222 20.7669 6.89325 24.3363 6.94925C27.9057 7.00525 31.3687 8.17343 34.2427 10.291L33.4367 11.0751C33.3205 11.1923 33.2554 11.3506 33.2555 11.5156C33.255 11.5978 33.2708 11.6794 33.3019 11.7555C33.333 11.8316 33.3788 11.9008 33.4367 11.9592L36.1921 14.6928C36.3092 14.8092 36.4676 14.8745 36.6326 14.8745C36.7977 14.8745 36.956 14.8092 37.0731 14.6928L39.8129 11.953C39.871 11.895 39.9171 11.826 39.9485 11.7502C39.98 11.6743 39.9962 11.593 39.9962 11.5109C39.9962 11.4288 39.98 11.3475 39.9485 11.2717C39.9171 11.1958 39.871 11.1269 39.8129 11.0689L37.0731 8.32907C36.956 8.2127 36.7977 8.14738 36.6326 8.14738C36.4676 8.14738 36.3092 8.2127 36.1921 8.32907L35.1331 9.38188C32.5229 7.41777 29.4371 6.18377 26.1923 5.80659C22.9476 5.42941 19.6609 5.92265 16.6699 7.23565L20.2719 3.64298C20.6803 3.83813 21.1447 3.88231 21.5826 3.76766C22.0205 3.65302 22.4036 3.38698 22.664 3.01673C22.9244 2.64648 23.0452 2.19596 23.005 1.74509C22.9649 1.29423 22.7663 0.872167 22.4445 0.553787C22.1228 0.235407 21.6987 0.0412896 21.2474 0.00587338C20.7961 -0.0295428 20.3469 0.0960315 19.9794 0.360319C19.6119 0.624606 19.3499 1.01052 19.2399 1.4496C19.1299 1.88867 19.179 2.35253 19.3784 2.75887L13.299 8.84767C12.6817 8.43361 11.9399 8.2467 11.2001 8.31889C10.4603 8.39107 9.76857 8.71787 9.24299 9.24344C8.71741 9.76902 8.39062 10.4608 8.31844 11.2005C8.24625 11.9403 8.43315 12.6822 8.84721 13.2995L2.75842 19.3789C2.35049 19.1801 1.88529 19.1324 1.4455 19.2442C1.00571 19.356 0.619804 19.6201 0.356358 19.9896C0.0929114 20.3591 -0.0310131 20.81 0.00660532 21.2622C0.0442238 21.7145 0.240949 22.1387 0.561823 22.4596C0.882697 22.7805 1.30694 22.9772 1.75916 23.0148C2.21138 23.0524 2.6623 22.9285 3.03178 22.665C3.40126 22.4016 3.66538 22.0157 3.7772 21.5759C3.88902 21.1361 3.8413 20.6709 3.64253 20.263L7.24457 16.6703C5.93025 19.6606 5.43546 22.9468 5.81099 26.1915C6.18652 29.4362 7.41884 32.5225 9.38143 35.1335L8.3255 36.1926C8.20912 36.3096 8.1438 36.468 8.1438 36.6331C8.1438 36.7981 8.20912 36.9565 8.3255 37.0736L11.0653 39.8134C11.1819 39.9307 11.3403 39.997 11.5058 39.9977C11.5882 39.9977 11.6699 39.9815 11.746 39.9499C11.8222 39.9182 11.8913 39.8718 11.9494 39.8134L14.6923 37.0736C14.8087 36.9565 14.874 36.7981 14.874 36.6331C14.874 36.468 14.8087 36.3096 14.6923 36.1926L11.9588 33.4372ZM36.6389 9.64743L38.4946 11.5031L36.6389 13.3588L34.7832 11.5031L36.6389 9.64743ZM20.628 1.45614C20.7209 1.36253 20.8395 1.29862 20.9687 1.2725C21.0979 1.24639 21.232 1.25925 21.3539 1.30946C21.4758 1.35966 21.58 1.44495 21.6534 1.55449C21.7267 1.66404 21.7659 1.79291 21.7659 1.92474C21.7659 2.05658 21.7267 2.18545 21.6534 2.295C21.58 2.40454 21.4758 2.48983 21.3539 2.54003C21.232 2.59024 21.0979 2.6031 20.9687 2.57698C20.8395 2.55087 20.7209 2.48696 20.628 2.39335C20.5665 2.33184 20.5176 2.2588 20.4843 2.17839C20.4509 2.09798 20.4338 2.01179 20.4338 1.92474C20.4338 1.8377 20.4509 1.75151 20.4843 1.6711C20.5176 1.59069 20.5665 1.51765 20.628 1.45614ZM10.1312 10.1317C10.3126 9.94935 10.5283 9.80469 10.7658 9.70598C11.0033 9.60727 11.258 9.55646 11.5152 9.55646C11.7724 9.55646 12.027 9.60727 12.2645 9.70598C12.502 9.80469 12.7177 9.94935 12.8991 10.1317C13.1734 10.4055 13.3602 10.7545 13.4361 11.1345C13.5119 11.5146 13.4733 11.9086 13.3251 12.2667C13.177 12.6248 12.9259 12.9309 12.6037 13.1463C12.2815 13.3617 11.9027 13.4766 11.5152 13.4766C11.1276 13.4766 10.7488 13.3617 10.4266 13.1463C10.1044 12.9309 9.85334 12.6248 9.70518 12.2667C9.55702 11.9086 9.51841 11.5146 9.59424 11.1345C9.67008 10.7545 9.85695 10.4055 10.1312 10.1317ZM2.39603 21.5657C2.26847 21.6721 2.10574 21.7269 1.93982 21.7194C1.77389 21.7119 1.61677 21.6426 1.49933 21.5252C1.38188 21.4078 1.3126 21.2506 1.3051 21.0847C1.29761 20.9188 1.35243 20.7561 1.45881 20.6285C1.58384 20.5056 1.75212 20.4368 1.92742 20.4368C2.10272 20.4368 2.271 20.5056 2.39603 20.6285C2.45761 20.69 2.50647 20.7631 2.53981 20.8435C2.57314 20.9239 2.5903 21.0101 2.5903 21.0971C2.5903 21.1842 2.57314 21.2703 2.53981 21.3508C2.50647 21.4312 2.45761 21.5042 2.39603 21.5657ZM11.5152 38.4763L9.65947 36.6206L11.5152 34.7649L13.3709 36.6206L11.5152 38.4763Z" fill="#4500D0"/>
</svg>
