<svg width="40" height="40" viewBox="0 0 40 40" fill="none" xmlns="http://www.w3.org/2000/svg">
<path d="M34.5037 29.3334C34.7154 28.2094 34.71 27.0553 34.4877 25.9334L37.541 18.5648C37.5413 18.5599 37.5413 18.555 37.541 18.5501C38.0358 17.1955 38.7609 15.9366 39.6843 14.8288C39.9141 14.5861 40.0065 14.2442 39.9303 13.9188L38.6783 8.51219C38.6634 8.45567 38.641 8.40141 38.6117 8.35086C38.6063 8.34086 38.6043 8.32886 38.599 8.31952C38.5937 8.31019 38.5703 8.28752 38.557 8.27019C38.5297 8.23025 38.4982 8.19337 38.463 8.16019C38.4398 8.14388 38.4155 8.12918 38.3903 8.11619C38.3578 8.09227 38.3233 8.07129 38.287 8.05353C38.2368 8.03454 38.1844 8.02178 38.131 8.01553C38.1157 8.01553 38.1023 8.00553 38.087 8.00419C37.9592 7.99568 37.8317 8.02415 37.7197 8.08619C37.7097 8.09153 37.6977 8.09353 37.6877 8.09953H37.681L32.9737 11.0375C32.6886 11.214 32.5117 11.5223 32.503 11.8575C32.3723 13.2969 31.9931 14.7028 31.3824 16.0128V16.0201L29.8564 19.7088C29.1074 19.3106 28.3056 19.0211 27.4751 18.8488C27.7895 16.6788 27.9051 14.4846 27.8204 12.2935C29.0614 10.8045 29.657 8.88196 29.4751 6.9522C29.0584 3.06689 25.5471 0.260907 25.3971 0.142908C25.1716 -0.0346298 24.8579 -0.0479817 24.6182 0.109761C24.3785 0.267504 24.2666 0.560943 24.3404 0.838237C24.6838 2.12756 24.3864 3.48822 21.8504 6.2862C20.711 7.38639 20.3499 9.06626 20.9364 10.5375C21.1607 11.1002 21.482 11.6192 21.8858 12.0708C21.7244 13.1008 21.5978 14.0762 21.5104 15.0262C21.3601 16.5974 21.3213 18.1774 21.3944 19.7541C20.7997 20.0766 20.2429 20.4645 19.7345 20.9108L16.5011 7.0842C16.5011 7.0702 16.4878 7.0602 16.4838 7.04753C16.473 7.00308 16.4573 6.95994 16.4371 6.91887L13.1345 0.81957C12.804 0.209089 12.1057 -0.104619 11.4298 0.0536884C10.7539 0.211995 10.2676 0.80314 10.2425 1.4969L9.99185 8.42686C9.99201 8.47687 9.9976 8.52672 10.0085 8.57552C10.0085 8.58619 10.0085 8.59552 10.0085 8.60552L13.3072 22.6834C12.7868 22.7064 12.2702 22.7835 11.7658 22.9134L8.13719 14.1502C7.84622 13.4803 7.07449 13.1642 6.3972 13.4375L0.851237 15.7335C0.172486 16.0168 -0.150077 16.7951 0.129241 17.4755L5.05054 29.3474C2.16623 29.4988 -0.0726425 31.9201 0.00180386 34.8074C0.0762502 37.6947 2.43693 39.9974 5.32521 40H34.6584C36.5638 39.9724 38.3097 38.9303 39.2385 37.2664C40.1672 35.6024 40.1378 33.5694 39.1611 31.9331C38.1845 30.2968 36.4091 29.3058 34.5037 29.3334ZM33.8244 12.0775L36.619 10.3335L35.6297 12.7228C35.4887 13.063 35.6502 13.4531 35.9904 13.5942C36.3306 13.7352 36.7207 13.5737 36.8617 13.2335L37.851 10.8442L38.5917 14.0528C37.7992 15.0196 37.1483 16.0941 36.6584 17.2441C35.9633 17.5663 35.1652 17.583 34.4572 17.2902C33.7493 16.9974 33.1961 16.4218 32.9317 15.7028C33.3999 14.5429 33.7005 13.3222 33.8244 12.0775ZM32.291 17.3115C32.7321 17.8507 33.3044 18.2674 33.953 18.5215C34.4686 18.7432 35.0231 18.8602 35.5844 18.8655C35.7194 18.865 35.8543 18.8567 35.9884 18.8408L33.861 23.9741C33.224 22.5696 32.2386 21.3513 30.9984 20.4348L32.291 17.3115ZM23.1578 12.5502L26.5071 12.7548C26.5277 13.3775 26.5204 14.0215 26.4997 14.6755C25.384 14.7552 24.2627 14.701 23.1598 14.5142C23.0758 14.5022 22.9938 14.4928 22.9104 14.4815C22.9771 13.8535 23.0584 13.2175 23.1564 12.5502H23.1578ZM22.8398 7.18153C24.6098 5.22888 25.5271 3.72689 25.7404 2.31489C27.0127 3.62392 27.8525 5.29191 28.1464 7.09353C28.2864 8.66192 27.8015 10.2221 26.7971 11.4348C25.4802 11.3548 24.1778 11.2748 22.8898 11.1948C22.3363 10.6775 22.018 9.95667 22.0083 9.19913C21.9986 8.44159 22.2984 7.71289 22.8384 7.18153H22.8398ZM22.7891 15.8101L22.9824 15.8355C23.8415 15.9683 24.7086 16.0421 25.5778 16.0561C25.8538 16.0561 26.1444 16.0341 26.4357 16.0115C26.3751 16.8695 26.2757 17.7655 26.1497 18.6915C25.9851 18.6828 25.8238 18.6668 25.6584 18.6668C24.6519 18.6686 23.6529 18.8406 22.7038 19.1755C22.673 18.053 22.7011 16.9297 22.7878 15.8101H22.7891ZM17.6325 23.6061L15.7251 15.4815C15.636 15.129 15.2808 14.913 14.9268 14.9959C14.5728 15.0788 14.3505 15.4301 14.4272 15.7855L16.1411 23.0981C15.6699 22.9296 15.1831 22.8083 14.6878 22.7361L11.7618 10.2495C12.1717 10.4361 12.6168 10.533 13.0672 10.5335C13.1092 10.5335 13.1538 10.5275 13.1965 10.5255L13.6678 12.5382C13.7186 12.7737 13.8926 12.9636 14.1229 13.0347C14.3531 13.1058 14.6038 13.047 14.7786 12.8811C14.9533 12.7151 15.0249 12.4678 14.9658 12.2342L14.4938 10.2202C14.9461 10.0199 15.3451 9.71623 15.6585 9.33352L18.6331 22.0528C18.2468 22.5346 17.9115 23.0552 17.6325 23.6061ZM13.5592 9.13952C12.7066 9.30487 11.836 8.9563 11.3332 8.24819L11.4178 5.90021C11.6498 5.94353 11.8852 5.96584 12.1212 5.96687C12.3491 5.96783 12.5764 5.94255 12.7985 5.89154C13.2482 5.77343 13.6689 5.56422 14.0345 5.27688L15.1572 7.34886C15.0234 8.20854 14.398 8.90989 13.5592 9.14085V9.13952ZM11.7332 1.35157C11.824 1.33053 11.9177 1.37249 11.9625 1.45423L13.3918 4.09755C13.134 4.33081 12.8261 4.50186 12.4918 4.59755C12.1502 4.66026 11.7987 4.64361 11.4645 4.54888L11.5732 1.5449C11.5768 1.45174 11.6423 1.37255 11.7332 1.35157ZM6.90853 14.6668L7.41786 15.8975L4.95121 16.9188C4.65879 17.0416 4.49336 17.3534 4.55566 17.6644C4.61795 17.9754 4.89072 18.1994 5.20788 18.2001C5.29547 18.1999 5.38218 18.1827 5.46321 18.1495L7.92986 17.1275L8.43986 18.3595L7.20586 18.8708C6.91177 18.9925 6.74472 19.3051 6.80702 19.6173C6.86932 19.9294 7.14357 20.154 7.46186 20.1535C7.54922 20.1531 7.6357 20.1359 7.71653 20.1028L8.95052 19.5915L9.46052 20.8235L6.99187 21.8468C6.69777 21.9685 6.53073 22.2811 6.59302 22.5933C6.65532 22.9054 6.92958 23.1299 7.24786 23.1294C7.33523 23.1292 7.42172 23.112 7.50253 23.0788L9.96918 22.0574L10.5085 23.3594C8.33612 24.351 6.74313 26.2899 6.19187 28.6134L1.3599 16.9628L6.90853 14.6668ZM34.6584 38.6667H5.32521C3.11608 38.6667 1.32523 36.8758 1.32523 34.6667C1.32523 32.4576 3.11608 30.6667 5.32521 30.6667C5.71149 30.6654 6.09585 30.7211 6.46587 30.8321C6.66576 30.8924 6.8824 30.8557 7.05118 30.7327C7.21996 30.6098 7.32138 30.4148 7.3252 30.2061C7.37262 27.8301 8.74612 25.6807 10.8823 24.6394C13.0184 23.5982 15.5577 23.8404 17.4585 25.2668C17.6264 25.3918 17.8434 25.4306 18.0443 25.3716C18.2452 25.3127 18.4067 25.1627 18.4805 24.9668C19.7829 21.4956 23.3827 19.4538 27.0303 20.1172C30.678 20.7807 33.3283 23.9592 33.325 27.6667C33.3263 28.4292 33.2128 29.1874 32.9884 29.9161C32.9183 30.1428 32.974 30.3896 33.1346 30.5642C33.2953 30.7389 33.5366 30.815 33.7684 30.7641C34.0607 30.6997 34.3591 30.6671 34.6584 30.6667C36.8675 30.6667 38.6583 32.4576 38.6583 34.6667C38.6583 36.8758 36.8675 38.6667 34.6584 38.6667Z" fill="#FF6881"/>
<path d="M25.7838 10.4662C25.993 10.467 26.1905 10.3695 26.3171 10.2028C27.1494 9.07634 27.4711 7.6524 27.2038 6.27753C27.1469 6.04245 26.9672 5.8566 26.7341 5.79189C26.5011 5.72719 26.2513 5.79378 26.0814 5.9659C25.9115 6.13802 25.8481 6.38867 25.9158 6.62086C26.0754 7.59781 25.8372 8.598 25.2545 9.39818C25.1029 9.60019 25.0786 9.87046 25.1915 10.0963C25.3044 10.3222 25.5353 10.4648 25.7878 10.4648L25.7838 10.4662Z" fill="#FF6881"/>
<path d="M24.9062 30.6662C24.4104 30.6678 23.9215 30.7817 23.4762 30.9996C22.2769 29.3585 20.0376 28.8778 18.2705 29.882C16.5033 30.8862 15.7702 33.056 16.5662 34.9262C16.671 35.172 16.9124 35.3316 17.1796 35.3315C17.2694 35.3318 17.3583 35.3136 17.4409 35.2782C17.6036 35.2089 17.732 35.0778 17.7981 34.9138C17.8641 34.7498 17.8622 34.5662 17.7929 34.4035C17.6478 34.0653 17.5729 33.701 17.5729 33.3329C17.5729 31.8601 18.7668 30.6662 20.2395 30.6662C21.2739 30.6611 22.216 31.2605 22.6495 32.1996C22.664 32.2213 22.6795 32.2422 22.6962 32.2622C22.7067 32.2851 22.7185 32.3073 22.7315 32.3289C22.7435 32.3436 22.7609 32.3502 22.7742 32.3642C22.8055 32.3967 22.8401 32.4257 22.8775 32.4509C22.9108 32.4765 22.9466 32.4989 22.9842 32.5176C23.0229 32.5338 23.0631 32.5463 23.1042 32.5549C23.1452 32.5657 23.1872 32.5721 23.2295 32.5742C23.3161 32.5735 23.4021 32.5591 23.4842 32.5316C23.502 32.5283 23.5195 32.5241 23.5369 32.5189C23.5585 32.5049 23.5792 32.4895 23.5989 32.4729C23.6229 32.4622 23.6462 32.4502 23.6689 32.4369C24.019 32.1537 24.4558 31.9993 24.9062 31.9996C25.6857 32.0008 26.3934 32.4549 26.7195 33.1629C26.8723 33.4979 27.2678 33.6457 27.6028 33.4929C27.9379 33.3401 28.0856 32.9446 27.9328 32.6096C27.39 31.4263 26.208 30.6674 24.9062 30.6662Z" fill="#FF6881"/>
<path d="M11.7802 26.0337C11.6795 26.0664 9.32422 26.881 9.32422 29.333C9.32422 29.7012 9.62269 29.9997 9.99088 29.9997C10.359 29.9997 10.6575 29.7012 10.6575 29.333C10.7119 28.403 11.3238 27.5985 12.2055 27.2977C12.5553 27.1802 12.7436 26.8015 12.6262 26.4517C12.5087 26.1019 12.13 25.9136 11.7802 26.031V26.0337Z" fill="#FF6881"/>
<path d="M21.161 25.314C21.214 25.3274 21.2684 25.3341 21.323 25.334C21.6286 25.3336 21.8948 25.1257 21.969 24.8293C22.2759 23.5844 23.3779 22.6989 24.6597 22.6673C25.0279 22.6664 25.3256 22.3672 25.3247 21.999C25.3237 21.6308 25.0245 21.3331 24.6563 21.334C22.7615 21.3591 21.124 22.6639 20.6764 24.5053C20.5869 24.8624 20.8039 25.2245 21.161 25.314Z" fill="#FF6881"/>
</svg>
