<svg width="38" height="40" viewBox="0 0 38 40" fill="none" xmlns="http://www.w3.org/2000/svg">
<path d="M34.2019 6.0905C34.9959 6.0905 35.6383 5.44807 35.6383 4.65414C35.6383 3.8602 34.9959 3.21777 34.2019 3.21777C33.408 3.21777 32.7656 3.8602 32.7656 4.65414C32.7656 5.44807 33.4141 6.0905 34.2019 6.0905ZM34.2019 4.24201C34.4322 4.24201 34.6201 4.42989 34.6201 4.6602C34.6201 4.8905 34.4322 5.07838 34.2019 5.07838C33.9656 5.07838 33.7838 4.89656 33.7838 4.6602C33.7838 4.42383 33.9716 4.24201 34.2019 4.24201Z" fill="#F2A700"/>
<path d="M35.7962 0.897461H6.26884C5.14763 0.897461 4.23248 1.81261 4.23248 2.93383V6.04292H2.20824C1.08702 6.04292 0.171875 6.95807 0.171875 8.07928V33.6126C0.171875 34.7338 1.08702 35.649 2.20824 35.649H15.7416V38.5944C15.7416 38.8732 15.9719 39.1035 16.2507 39.1035H25.8143C26.0931 39.1035 26.3234 38.8732 26.3234 38.5944V35.649H31.7356C32.8568 35.649 33.7719 34.7338 33.7719 33.6126V30.5035H35.7962C36.9174 30.5035 37.8325 29.5884 37.8325 28.4672V2.93383C37.8325 1.81261 36.9174 0.897461 35.7962 0.897461ZM5.25066 2.93383C5.25066 2.37019 5.71127 1.91564 6.26884 1.91564H35.7962C36.3598 1.91564 36.8143 2.37625 36.8143 2.93383V7.40049H17.4931L15.2204 5.04292C15.0446 4.8611 14.8022 4.75807 14.5537 4.75807H9.54763C9.03854 4.75807 8.62036 5.17625 8.62036 5.68534V7.40049H5.25066V2.93383ZM2.20824 34.6369C1.6446 34.6369 1.19005 34.1763 1.19005 33.6187V8.07928C1.19005 7.51564 1.65066 7.0611 2.20824 7.0611H4.23248V28.4732C4.23248 29.5944 5.14763 30.5096 6.26884 30.5096H17.3234C17.5234 30.8975 17.6143 31.3338 17.578 31.7823H16.7901C16.2083 31.7823 15.7416 32.255 15.7416 32.8308V34.6369H2.20824ZM20.5295 23.9763C20.6325 23.7944 20.8204 23.6793 21.0325 23.6793C21.3477 23.6793 21.6022 23.9338 21.6022 24.249C21.6022 24.455 21.4931 24.6429 21.3174 24.746C21.1234 24.8611 20.8931 24.849 20.6568 24.7157C20.6265 24.6975 20.5962 24.6732 20.584 24.6429C20.3901 24.3338 20.4689 24.0914 20.5295 23.9763ZM20.5234 22.7581C20.1537 22.8854 19.8386 23.1338 19.6447 23.4854C19.3537 24.0066 19.3901 24.6429 19.7295 25.1884C19.8386 25.3581 19.984 25.4975 20.1598 25.6005C20.4386 25.7581 20.7416 25.8429 21.0386 25.8429C21.3174 25.8429 21.5901 25.7702 21.8325 25.6308C22.3174 25.346 22.6204 24.8187 22.6204 24.255C22.6204 23.5581 22.1659 22.9702 21.5416 22.7581V20.1399L26.0446 28.2672C26.0386 28.2732 26.0325 28.2854 26.0143 28.2914C24.4204 28.7035 23.378 30.1944 23.4628 31.7823H18.6083C18.6992 30.1884 17.6507 28.6975 16.0265 28.2429L20.5234 20.1399V22.7581ZM25.3053 38.0854H16.7598L16.7901 32.7944H25.275C25.2931 32.7944 25.3053 32.8066 25.3053 32.8247V38.0854ZM32.7537 33.6126C32.7537 34.1763 32.2931 34.6308 31.7356 34.6308H26.3234V32.8247C26.3234 32.2429 25.8507 31.7763 25.275 31.7763H24.4871C24.4507 31.3278 24.5477 30.8914 24.7416 30.5035H32.7537V33.6126ZM35.7962 29.4914H25.7295C25.8931 29.4005 26.0689 29.3217 26.2628 29.2732C26.584 29.1884 26.8446 28.9641 26.978 28.6611C27.1053 28.3641 27.0871 28.0308 26.9295 27.746L21.7174 18.3581C21.584 18.1096 21.3234 17.952 21.0386 17.952C20.7477 17.9581 20.4871 18.1035 20.3477 18.352L15.1295 27.746C14.9719 28.0308 14.9598 28.3702 15.0871 28.6672C15.2143 28.9702 15.475 29.1884 15.7962 29.2732C15.9901 29.3217 16.1598 29.4005 16.3295 29.4914H6.26884C5.70521 29.4914 5.25066 29.0308 5.25066 28.4732V8.41867H8.70521C9.2143 8.41867 9.63248 8.00049 9.63248 7.4914V5.77625H14.5113L16.784 8.13383C16.9598 8.31565 17.2022 8.41867 17.4507 8.41867H36.8143V28.4672C36.8143 29.0308 36.3598 29.4914 35.7962 29.4914Z" fill="#F2A700"/>
<path d="M30.7332 6.0905C31.5272 6.0905 32.1696 5.44807 32.1696 4.65414C32.1696 3.8602 31.5272 3.21777 30.7332 3.21777C29.9393 3.21777 29.2969 3.8602 29.2969 4.65414C29.2969 5.44807 29.9393 6.0905 30.7332 6.0905ZM30.7332 4.24201C30.9635 4.24201 31.1514 4.42989 31.1514 4.6602C31.1514 4.8905 30.9635 5.07838 30.7332 5.07838C30.4969 5.07838 30.315 4.89656 30.315 4.6602C30.315 4.42383 30.5029 4.24201 30.7332 4.24201Z" fill="#F2A700"/>
<path d="M27.2606 6.0905C28.0545 6.0905 28.6969 5.44807 28.6969 4.65414C28.6969 3.8602 28.0545 3.21777 27.2606 3.21777C26.4666 3.21777 25.8242 3.8602 25.8242 4.65414C25.8242 5.44807 26.4666 6.0905 27.2606 6.0905ZM27.2606 4.24201C27.4909 4.24201 27.6788 4.42989 27.6788 4.6602C27.6788 4.8905 27.4909 5.07838 27.2606 5.07838C27.0242 5.07838 26.8424 4.89656 26.8424 4.6602C26.8424 4.42383 27.0303 4.24201 27.2606 4.24201Z" fill="#F2A700"/>
<path d="M30.8414 12.8547C30.5445 13.1517 30.3566 13.5274 30.2839 13.9274H23.1626V13.1274C23.1626 12.582 22.7202 12.1396 22.1748 12.1396H19.8778C19.3323 12.1396 18.8899 12.582 18.8899 13.1274V13.9274H11.7748C11.7081 13.5335 11.5202 13.1577 11.2172 12.8487C10.4475 12.0911 9.13236 12.1032 8.38084 12.8547C7.99903 13.2365 7.79297 13.7396 7.79297 14.2729C7.79297 14.8123 8.00509 15.3214 8.38084 15.6911C8.76266 16.085 9.27175 16.285 9.79903 16.285C10.1323 16.285 10.4717 16.2062 10.7929 16.0426C11.1384 15.8668 11.4232 15.5759 11.5929 15.2183C11.6354 15.1274 11.6717 15.0365 11.702 14.9456H16.6414C13.9566 16.2547 11.9323 18.7153 11.2293 21.685H10.4414C9.89599 21.685 9.45357 22.1274 9.45357 22.6729V24.9699C9.45357 25.5153 9.89599 25.9577 10.4414 25.9577H12.7384C13.2839 25.9577 13.7263 25.5153 13.7263 24.9699V22.6729C13.7263 22.1274 13.2839 21.685 12.7384 21.685H12.2778C13.1263 18.485 15.6899 15.9759 18.9081 15.2002V15.4183C18.9081 15.9638 19.3505 16.4062 19.896 16.4062H22.1929C22.7384 16.4062 23.1808 15.9638 23.1808 15.4183V15.2002C26.3929 15.9759 28.9566 18.485 29.8111 21.685H29.3929C28.8475 21.685 28.4051 22.1274 28.4051 22.6729V24.9699C28.4051 25.5153 28.8475 25.9577 29.3929 25.9577H31.6899C32.2354 25.9577 32.6778 25.5153 32.6778 24.9699V22.6729C32.6778 22.1274 32.2354 21.685 31.6899 21.685H30.8596C30.1505 18.7153 28.1263 16.2487 25.4475 14.9456H30.399C30.496 15.2244 30.6536 15.479 30.8657 15.6911C31.2475 16.085 31.7566 16.285 32.2839 16.285C32.6172 16.285 32.9566 16.2062 33.2778 16.0426C33.6232 15.8668 33.9081 15.5759 34.0778 15.2183C34.4717 14.388 34.3323 13.485 33.7081 12.8487C32.9142 12.0971 31.599 12.1032 30.8414 12.8547ZM10.6657 14.788C10.5929 14.9335 10.4717 15.0608 10.3263 15.1335C9.79903 15.4002 9.34448 15.2305 9.096 14.9699C8.90812 14.788 8.80509 14.5396 8.80509 14.2729C8.80509 14.0123 8.90812 13.7638 9.096 13.5699C9.28387 13.382 9.53236 13.279 9.79903 13.279C10.0596 13.279 10.3142 13.382 10.496 13.5638C10.8111 13.8911 10.8717 14.3456 10.6657 14.788ZM12.7263 24.9396L10.4596 24.9699L10.4293 22.7032H12.696L12.7263 24.9396ZM31.6717 24.9396L29.4051 24.9699L29.3748 22.7032H31.6414L31.6717 24.9396ZM19.9142 15.4244L19.902 14.6608C19.9142 14.6062 19.9142 14.5517 19.9081 14.4911V14.485C19.9081 14.4668 19.9202 14.4547 19.9202 14.4365C19.9202 14.4062 19.9081 14.382 19.902 14.3577L19.8839 13.1638H22.1505L22.1687 14.3577C22.1626 14.388 22.1505 14.4123 22.1505 14.4426C22.1505 14.4608 22.1566 14.4729 22.1626 14.4911V14.4971C22.1505 14.5759 22.1566 14.6487 22.1748 14.7153L22.1869 15.4002L19.9142 15.4244ZM33.1323 14.788C33.0596 14.9335 32.9384 15.0608 32.7929 15.1335C32.2657 15.4002 31.8111 15.2305 31.5626 14.9699C31.3748 14.788 31.2717 14.5396 31.2717 14.2729C31.2717 14.0123 31.3748 13.7638 31.5626 13.5699C31.7505 13.382 31.999 13.279 32.2657 13.279C32.5263 13.279 32.7808 13.382 32.9626 13.5638C33.2778 13.8911 33.3384 14.3456 33.1323 14.788Z" fill="#F2A700"/>
</svg>
